<svg width="50" height="50" viewBox="0 0 50 50" fill="none" xmlns="http://www.w3.org/2000/svg">
<path d="M40.5416 20.8333C40.3361 21.137 40.2144 21.4896 40.1888 21.8554C40.1632 22.2212 40.2346 22.5873 40.3958 22.9167C40.9129 24.1235 41.2768 25.3903 41.4791 26.6875C42.0154 30.042 41.5139 33.4802 40.0416 36.5417C39.8629 36.8775 39.5955 37.1579 39.2687 37.3525C38.9418 37.5472 38.5679 37.6486 38.1875 37.6458H11.8333C11.4508 37.6466 11.0754 37.5421 10.7483 37.3436C10.4212 37.1452 10.1551 36.8605 9.97915 36.5208C8.64556 33.8155 8.07111 30.799 8.31703 27.7929C8.56295 24.7867 9.62003 21.9037 11.3756 19.451C13.1311 16.9984 15.5193 15.0682 18.2856 13.866C21.0518 12.6639 24.0925 12.235 27.0833 12.625C28.5966 12.8029 30.0768 13.1957 31.4791 13.7917C31.8085 13.9529 32.1746 14.0243 32.5404 13.9987C32.9062 13.9731 33.2588 13.8513 33.5625 13.6458C33.8789 13.4374 34.1325 13.1466 34.2959 12.8047C34.4593 12.4629 34.5265 12.083 34.49 11.7058C34.4536 11.3287 34.315 10.9686 34.0892 10.6643C33.8633 10.3601 33.5588 10.1232 33.2083 9.97917C29.1837 8.25346 24.7177 7.83977 20.4446 8.79688C16.1715 9.75398 12.3086 12.0332 9.40468 15.3108C6.50075 18.5884 4.70342 22.6977 4.268 27.055C3.83258 31.4122 4.78122 35.7959 6.97915 39.5833C7.34271 40.2131 7.86475 40.7367 8.49338 41.1022C9.12201 41.4677 9.83534 41.6623 10.5625 41.6667H39.4166C40.1509 41.6696 40.8728 41.4784 41.5094 41.1126C42.1459 40.7467 42.6745 40.2192 43.0416 39.5833C44.6508 36.7947 45.5917 33.671 45.7905 30.4575C45.9893 27.2441 45.4406 24.0282 44.1875 21.0625C44.0288 20.7245 43.7821 20.4354 43.4734 20.2254C43.1646 20.0154 42.8051 19.8922 42.4324 19.8688C42.0597 19.8454 41.6876 19.9225 41.355 20.0922C41.0223 20.2619 40.7414 20.5179 40.5416 20.8333Z" fill="currentColor"/>
<path d="M22.0625 26.2291C21.2807 27.011 20.8414 28.0714 20.8414 29.1771C20.8414 29.7245 20.9493 30.2666 21.1588 30.7725C21.3683 31.2783 21.6754 31.7378 22.0625 32.125C22.4496 32.5121 22.9092 32.8192 23.415 33.0287C23.9208 33.2382 24.4629 33.346 25.0104 33.346C26.1161 33.346 27.1765 32.9068 27.9583 32.125L39.75 14.4375L22.0625 26.2291Z" fill="currentColor"/>
</svg>
