<svg width="54" height="56" viewBox="0 0 54 56" fill="none" xmlns="http://www.w3.org/2000/svg">
<path d="M38.2387 16.3333H31.5289C30.2988 16.3333 29.2924 17.3833 29.2924 18.6667C29.2924 19.95 30.2988 21 31.5289 21H38.2387C41.929 21 44.9484 24.15 44.9484 28C44.9484 31.85 41.929 35 38.2387 35H31.5289C30.2988 35 29.2924 36.05 29.2924 37.3333C29.2924 38.6167 30.2988 39.6667 31.5289 39.6667H38.2387C44.4116 39.6667 49.4215 34.44 49.4215 28C49.4215 21.56 44.4116 16.3333 38.2387 16.3333ZM18.1095 28C18.1095 29.2833 19.116 30.3333 20.3461 30.3333H33.7655C34.9956 30.3333 36.0021 29.2833 36.0021 28C36.0021 26.7167 34.9956 25.6667 33.7655 25.6667H20.3461C19.116 25.6667 18.1095 26.7167 18.1095 28ZM22.5827 35H15.8729C12.1826 35 9.16321 31.85 9.16321 28C9.16321 24.15 12.1826 21 15.8729 21H22.5827C23.8128 21 24.8192 19.95 24.8192 18.6667C24.8192 17.3833 23.8128 16.3333 22.5827 16.3333H15.8729C9.69999 16.3333 4.69006 21.56 4.69006 28C4.69006 34.44 9.69999 39.6667 15.8729 39.6667H22.5827C23.8128 39.6667 24.8192 38.6167 24.8192 37.3333C24.8192 36.05 23.8128 35 22.5827 35Z" fill="#515151"/>
</svg>
