<svg width="50" height="50" viewBox="0 0 50 50" fill="none" xmlns="http://www.w3.org/2000/svg">
<path d="M43.75 6.25H6.24998C3.95831 6.25 2.08331 8.125 2.08331 10.4167V35.4167C2.08331 37.7083 3.95831 39.5833 6.24998 39.5833H16.6666V41.6667C16.6666 42.8125 17.6041 43.75 18.75 43.75H31.25C32.3958 43.75 33.3333 42.8125 33.3333 41.6667V39.5833H43.75C46.0416 39.5833 47.8958 37.7083 47.8958 35.4167L47.9166 10.4167C47.9166 8.10417 46.0416 6.25 43.75 6.25ZM41.6666 35.4167H8.33331C7.18748 35.4167 6.24998 34.4792 6.24998 33.3333V12.5C6.24998 11.3542 7.18748 10.4167 8.33331 10.4167H41.6666C42.8125 10.4167 43.75 11.3542 43.75 12.5V33.3333C43.75 34.4792 42.8125 35.4167 41.6666 35.4167ZM30.1666 24.7292L21.875 29.4792C20.4791 30.2708 18.75 29.25 18.75 27.6667V18.1667C18.75 16.5625 20.4791 15.5625 21.875 16.3542L30.1666 21.1042C31.5625 21.9167 31.5625 23.9167 30.1666 24.7292Z" fill="currentColor"/>
</svg>
