<svg width="50" height="50" viewBox="0 0 50 50" fill="none" xmlns="http://www.w3.org/2000/svg">
<path d="M10.4167 27.4583V33.3125C10.4167 34.8333 11.25 36.25 12.5833 36.9791L23 42.6666C24.25 43.3541 25.75 43.3541 27 42.6666L37.4167 36.9791C38.75 36.25 39.5833 34.8333 39.5833 33.3125V27.4583L27 34.3333C25.75 35.0208 24.25 35.0208 23 34.3333L10.4167 27.4583ZM23 7.33331L5.4375 16.9166C4 17.7083 4 19.7916 5.4375 20.5833L23 30.1666C24.25 30.8541 25.75 30.8541 27 30.1666L43.75 21.0208V33.3333C43.75 34.4791 44.6875 35.4166 45.8333 35.4166C46.9792 35.4166 47.9167 34.4791 47.9167 33.3333V19.9791C47.9167 19.2083 47.5 18.5208 46.8333 18.1458L27 7.33331C25.75 6.66665 24.25 6.66665 23 7.33331Z" fill="currentColor"/>
</svg>
