<svg width="54" height="56" viewBox="0 0 54 56" fill="none" xmlns="http://www.w3.org/2000/svg">
<path d="M6.71018 14C5.48001 14 4.47351 15.05 4.47351 16.3333V46.6666C4.47351 49.2333 6.48651 51.3333 8.94684 51.3333H38.0235C39.2537 51.3333 40.2602 50.2833 40.2602 49C40.2602 47.7166 39.2537 46.6666 38.0235 46.6666H11.1835C9.95334 46.6666 8.94684 45.6166 8.94684 44.3333V16.3333C8.94684 15.05 7.94034 14 6.71018 14ZM44.7335 4.66663H17.8935C15.4332 4.66663 13.4202 6.76663 13.4202 9.33329V37.3333C13.4202 39.9 15.4332 42 17.8935 42H44.7335C47.1938 42 49.2068 39.9 49.2068 37.3333V9.33329C49.2068 6.76663 47.1938 4.66663 44.7335 4.66663ZM40.2602 25.6666H22.3668C21.1367 25.6666 20.1302 24.6166 20.1302 23.3333C20.1302 22.05 21.1367 21 22.3668 21H40.2602C41.4903 21 42.4968 22.05 42.4968 23.3333C42.4968 24.6166 41.4903 25.6666 40.2602 25.6666ZM31.3135 35H22.3668C21.1367 35 20.1302 33.95 20.1302 32.6666C20.1302 31.3833 21.1367 30.3333 22.3668 30.3333H31.3135C32.5437 30.3333 33.5502 31.3833 33.5502 32.6666C33.5502 33.95 32.5437 35 31.3135 35ZM40.2602 16.3333H22.3668C21.1367 16.3333 20.1302 15.2833 20.1302 14C20.1302 12.7166 21.1367 11.6666 22.3668 11.6666H40.2602C41.4903 11.6666 42.4968 12.7166 42.4968 14C42.4968 15.2833 41.4903 16.3333 40.2602 16.3333Z" fill="#515151"/>
</svg>
