<svg width="50" height="50" viewBox="0 0 50 50" fill="none" xmlns="http://www.w3.org/2000/svg">
<path d="M27.0834 20.8333H6.25002C5.10419 20.8333 4.16669 21.7708 4.16669 22.9167C4.16669 24.0625 5.10419 25 6.25002 25H27.0834C28.2292 25 29.1667 24.0625 29.1667 22.9167C29.1667 21.7708 28.2292 20.8333 27.0834 20.8333ZM27.0834 12.5H6.25002C5.10419 12.5 4.16669 13.4375 4.16669 14.5833C4.16669 15.7292 5.10419 16.6667 6.25002 16.6667H27.0834C28.2292 16.6667 29.1667 15.7292 29.1667 14.5833C29.1667 13.4375 28.2292 12.5 27.0834 12.5ZM6.25002 33.3333H18.75C19.8959 33.3333 20.8334 32.3958 20.8334 31.25C20.8334 30.1042 19.8959 29.1667 18.75 29.1667H6.25002C5.10419 29.1667 4.16669 30.1042 4.16669 31.25C4.16669 32.3958 5.10419 33.3333 6.25002 33.3333ZM46.2709 25.4375L46.4584 25.625C47.2709 26.4375 47.2709 27.75 46.4584 28.5625L34.8334 40.2083C34.0209 41.0208 32.7084 41.0208 31.8959 40.2083L25.4584 33.7708C24.6459 32.9583 24.6459 31.6458 25.4584 30.8333L25.6459 30.6458C26.4584 29.8333 27.7709 29.8333 28.5834 30.6458L33.375 35.4375L43.3334 25.4583C44.125 24.625 45.4584 24.625 46.2709 25.4375Z" fill="currentColor"/>
</svg>
