<svg width="56" height="56" viewBox="0 0 56 56" fill="none" xmlns="http://www.w3.org/2000/svg">
<path d="M49 7H7.00004C4.43337 7 2.33337 9.1 2.33337 11.6667V39.6667C2.33337 42.2333 4.43337 44.3333 7.00004 44.3333H18.6667V46.6667C18.6667 47.95 19.7167 49 21 49H35C36.2834 49 37.3334 47.95 37.3334 46.6667V44.3333H49C51.5667 44.3333 53.6434 42.2333 53.6434 39.6667L53.6667 11.6667C53.6667 9.07667 51.5667 7 49 7ZM46.6667 39.6667H9.33337C8.05004 39.6667 7.00004 38.6167 7.00004 37.3333V14C7.00004 12.7167 8.05004 11.6667 9.33337 11.6667H46.6667C47.95 11.6667 49 12.7167 49 14V37.3333C49 38.6167 47.95 39.6667 46.6667 39.6667ZM33.7867 27.6967L24.5 33.0167C22.9367 33.9033 21 32.76 21 30.9867V20.3467C21 18.55 22.9367 17.43 24.5 18.3167L33.7867 23.6367C35.35 24.5467 35.35 26.7867 33.7867 27.6967Z" fill="#515151"/>
</svg>
